<svg xmlns="http://www.w3.org/2000/svg" viewBox="0 0 507.91 451.4">
  <title>Recurso 1</title>
  <g id="Capa_2" data-name="Capa 2">
    <g id="Capa_1-2" data-name="Capa 1">
      <circle cx="253.96" cy="245.39" r="206.01" style="fill: #3e3c55"/>
      <path d="M124.26,261.93a54.52,54.52,0,0,1,83.68,0,60.59,60.59,0,1,0-85.67-2C122.92,260.62,123.58,261.28,124.26,261.93Z" style="fill: #fff"/>
      <path d="M287.86,261.93a54.51,54.51,0,0,1,83.67,0,60.59,60.59,0,1,0-85.66-2C286.52,260.62,287.18,261.28,287.86,261.93Z" style="fill: #fff"/>
      <circle cx="145.43" cy="197.47" r="20.84" style="fill: #3e3c55"/>
      <circle cx="309.02" cy="197.47" r="20.84" style="fill: #3e3c55"/>
      <circle cx="105.51" cy="296.89" r="24.24" style="fill: #c85f7d"/>
      <circle cx="384.23" cy="296.89" r="24.24" style="fill: #c85f7d"/>
      <polygon points="244.87 248.42 226.69 327.19 256.99 296.89 244.87 248.42" style="fill: #c85f7d"/>
      <path d="M257,24.24c-5.66,0-10.64,4.39-14,11.13-2.94-10.14-9.11-17.19-16.32-17.19a11.54,11.54,0,0,0-1.45.24C222.46,7.59,216,0,208.51,0c-10,0-18.17,13.56-18.17,30.3s8.13,30.29,18.17,30.29a12,12,0,0,0,1.46-.24c2.77,10.82,9.21,18.42,16.72,18.42,5.65,0,10.64-4.39,14-11.14,2.94,10.14,9.12,17.2,16.33,17.2,10,0,18.17-13.57,18.17-30.3S267,24.24,257,24.24Z" style="fill: #3e3c55"/>
      <path d="M60.59,323.46h0A60.59,60.59,0,0,1,0,262.87H0v-30.3A60.59,60.59,0,0,1,60.59,172h0V323.46Z" style="fill: #2f9eda"/>
      <path d="M447.32,172h0a60.59,60.59,0,0,1,60.59,60.59v30.3a60.59,60.59,0,0,1-60.59,60.59h0V172Z" style="fill: #2f9eda"/>
      <path d="M479.07,237.34h-9.61c0-121.92-99.19-221.12-221.11-221.12S27.24,115.42,27.24,237.34H17.62C17.62,110.11,121.13,6.61,248.35,6.61S479.07,110.11,479.07,237.34Z" style="fill: #2f9eda"/>
    </g>
  </g>
</svg>
