<svg width="887.77227" height="772.83071" xmlns="http://www.w3.org/2000/svg">
 <title>happy_music</title>

 <g>
  <title>background</title>
  <rect fill="none" id="canvas_background" height="402" width="582" y="-1" x="-1"/>
 </g>
 <g>
  <title>Layer 1</title>
  <polygon id="svg_1" fill="#e6e6e6" points="887.772 763.25 252.263 772.831 0 728.121 393.817 728.121 887.772 763.25"/>
  <path id="svg_3" fill="#3f3d56" d="m179.840339,733.434882s1.487,-31.15875 31.97119,-27.537"/>
  <circle id="svg_4" fill="#00b0ff" r="15.25711" cy="688.52637" cx="171.2269"/>
  <rect id="svg_5" fill="#3f3d56" height="30.14703" width="4.30672" y="714.21843" x="168.74434"/>
  <path id="svg_6" fill="#3f3d56" d="m682.286749,738.757402s1.487,-31.15874 31.97119,-27.537"/>
  <circle id="svg_7" fill="#00b0ff" r="15.25711" cy="693.8489" cx="673.67331"/>
  <rect id="svg_8" fill="#3f3d56" height="30.14703" width="4.30672" y="719.54095" x="671.19075"/>
  <path id="svg_9" fill="#3f3d56" d="m755.737599,744.079932s1.487,-31.15874 31.9712,-27.537"/>
  <circle id="svg_10" fill="#00b0ff" r="15.25711" cy="699.17142" cx="747.12416"/>
  <rect id="svg_11" fill="#3f3d56" height="30.14703" width="4.30672" y="724.86348" x="744.64161"/>
  <path id="svg_12" fill="#3f3d56" d="m300.129419,718.531802s1.487,-31.15874 31.97119,-27.53695"/>
  <circle id="svg_13" fill="#00b0ff" r="15.25711" cy="673.6233" cx="291.51598"/>
  <rect id="svg_14" fill="#3f3d56" height="30.14703" width="4.30672" y="699.31536" x="289.03342"/>
  <path id="svg_15" fill="#3f3d56" d="m73.389829,723.854352s1.487,-31.15874 31.97119,-27.537"/>
  <circle id="svg_16" fill="#00b0ff" r="15.25711" cy="678.94583" cx="64.77639"/>
  <rect id="svg_17" fill="#3f3d56" height="30.14703" width="4.30672" y="704.63788" x="62.29383"/>
  <polygon id="svg_26" fill="#3f3d56" points="510.307 750.38 493.655 736.404 494.043 750.38 488.871 750.38 488.458 735.602 465.975 750.38 456.563 750.38 488.29 729.526 487.061 685.737 486.143 652.666 491.302 652.524 492.233 685.737 493.461 729.487 518.348 750.38 510.307 750.38"/>
  <polygon id="svg_27" fill="#3f3d56" points="432.076 750.38 415.424 736.404 415.812 750.38 410.654 750.38 410.24 735.602 387.757 750.38 378.345 750.38 410.059 729.526 408.831 685.737 407.913 652.666 413.084 652.524 414.015 685.737 415.23 729.487 440.118 750.38 432.076 750.38"/>
  <path id="svg_29" fill="#00b0ff" transform="rotate(180 1097.642578125,1643.2545166015625) " d="m1073.197326,1582.141175l0,0a48.89061,48.89061 0 0 1 48.89061,48.89061l0,24.44543a48.89061,48.89061 0 0 1 -48.89061,48.89061l0,0a0,0 0 0 1 0,0l0,-122.22665a0,0 0 0 1 0,0z"/>
  <polygon id="svg_32" fill="#ffffff" points="131.69 367.997 131.69 367.997 131.69 367.997 131.69 367.997"/>
  <path id="svg_33" fill="#ffffff" d="m171.547309,347.473352l0.00139,-0.0029l-3.64431,-1.51771l-15.37654,-6.50027l-5.51164,-2.32988l-0.423,1.06789l0,0l-7.40381,18.694l20.83674,8.81923l0.1094,0.09906l-1.40416,3.31082a5.86169,5.86169 0 0 0 -0.4899,0.95547c-0.98358,2.48353 0.87418,4.95394 2.63035,5.6494s3.9773,-0.75381 4.96087,-3.23734c0.97022,-2.44974 0.02206,-5.5618 -1.68937,-6.31373l0.00151,-0.0029l-3.64431,-1.51771l-12.46676,-4.84631l7.12325,-17.98534l-1.0558,-0.41806l-7.12577,17.992l-1.54154,-0.59929l7.15363,-18.06223l0.18843,0.07978l14.6541,6.20232l0.10928,0.09906l-1.404,3.31082a5.85137,5.85137 0 0 0 -0.48989,0.95547c-0.98371,2.48353 0.87405,4.95394 2.63022,5.6494s3.9773,-0.75381 4.96087,-3.23734c0.97023,-2.44971 0.02207,-5.56178 -1.68924,-6.31371z"/>
  <path id="svg_34" fill="#ffffff" d="m243.667219,393.367432c-7.564,-4.32464 -6.05044,-13.815 -6.05044,-13.815c-0.19032,-6.16526 -5.284,-5.29259 -5.284,-5.29259l-1.85385,0.4231a5.62911,5.62911 0 0 0 -2.75664,-0.50981l-2.82,0.47452c6.42137,1.50877 5.89378,6.88051 5.89378,6.88051l0.89964,6.281l-16.82582,-6.78775l1.93187,-4.555a8.12868,8.12868 0 0 0 0.68046,-1.32715c1.3661,-3.44946 -1.21409,-6.88051 -3.65325,-7.84645c-2.43916,-0.96618 -5.524,1.0471 -6.89022,4.49643c-1.34744,3.40232 -0.0305,7.7247 2.3464,8.769l-0.002,0.00415l5.06157,2.10782l0.03769,-0.11936l29.28481,10.81658zm-37.82924,-21.85258l0.53956,6.012a13.8665,13.8665 0 0 1 -2.52575,-9.20675a5.82316,5.82316 0 0 0 -1.12688,-3.22524a6.83065,6.83065 0 0 1 32.39788,17.23655l-29.28481,-10.81656z"/>
  <path id="svg_35" fill="#ffffff" d="m115.318939,304.455852l0.002,-0.004l-5.06157,-2.10794l-21.1545,-8.22341l5.33923,-4.75027a6.74419,6.74419 0 0 1 9.21683,-1.5099l-1.65686,-2.46248s-3.11483,-4.12374 -7.475,0.23935c0,0 -5.39481,7.95307 -13.86878,5.92579l28.94032,12.249l0.15187,0.13763l-1.95014,4.59827a8.12429,8.12429 0 0 0 -0.68047,1.32715c-1.36609,3.44933 1.2141,6.88038 3.65326,7.84644s5.524,-1.0471 6.89022,-4.49643c1.34743,-3.40237 0.03049,-7.7247 -2.34641,-8.7692z"/>
  <path id="svg_36" fill="#ffffff" d="m192.765899,277.541352l-1.95027,4.59826a8.13218,8.13218 0 0 0 -0.68034,1.32715c-1.36622,3.44933 1.214,6.88039 3.65313,7.84645s5.52412,-1.0471 6.89022,-4.49643c1.34756,-3.40232 0.03062,-7.7247 -2.34627,-8.76915l0.002,-0.004l-5.06157,-2.10794l-17.31509,-6.73091l9.89338,-24.97992l-1.46629,-0.58077l-9.89716,24.98925l-2.141,-0.83221l9.9356,-25.0868l0.26178,0.11078l20.353,8.61438l0.152,0.13763l-1.95018,4.59823a8.13743,8.13743 0 0 0 -0.68034,1.32715c-1.36622,3.44946 1.214,6.88051 3.65313,7.84657s5.52412,-1.0471 6.89022,-4.49656c1.34756,-3.40231 0.03062,-7.72469 -2.34628,-8.769l0.002,-0.00416l-5.06157,-2.10781l-20.68475,-8.74419l0,0l-0.00088,-0.00038l-0.67088,-0.28358l-7.65513,-3.23608l-10.87066,27.44744l28.9402,12.249l0.152,0.1376zm-18.961,-38.48834z"/>
  <path id="svg_37" fill="#ffffff" d="m101.053579,136.971812l0.00353,-0.00706l-8.71319,-3.62856l-36.41622,-14.15627l9.19111,-8.17728s6.11371,-8.4828 15.86619,-2.5991l-2.852,-4.23907s-5.36217,-7.09893 -12.86781,0.41189c0,0 -9.2869,13.69082 -23.87434,10.201l49.81893,21.08581l0.26152,0.237l-3.35707,7.91563a14.00544,14.00544 0 0 0 -1.17137,2.28464c-2.35169,5.9379 2.08991,11.84429 6.28877,13.50732s9.50936,-1.80256 11.86117,-7.74045c2.31951,-5.85696 0.05251,-13.29761 -4.03922,-15.0955z"/>
  <path id="svg_38" fill="#ffffff" d="m127.793549,255.885452c-18.08491,-10.33993 -14.46594,-33.03029 -14.46594,-33.03029c-0.455,-14.7407 -12.63376,-12.65406 -12.63376,-12.65406l-4.43241,1.01143a13.4583,13.4583 0 0 0 -6.59088,-1.219l-6.7425,1.13469c15.353,3.60738 14.09161,16.45074 14.09161,16.45074l2.15092,15.0171l-40.229,-16.2288l4.61893,-10.89082a19.45075,19.45075 0 0 0 1.627,-3.17306c3.26633,-8.24724 -2.90271,-16.45062 -8.73461,-18.76034s-13.20748,2.50356 -16.47381,10.75068c-3.22184,8.13468 -0.07322,18.46919 5.60983,20.96607l-0.00479,0.00983l12.10177,5.03977l0.09011,-0.28534l70.01753,25.8614zm-90.44653,-52.2475l1.29451,14.42385c-7.59564,-10.08294 -6.04314,-22.06233 -6.04314,-22.06233a13.925,13.925 0 0 0 -2.69425,-7.71121c78.74278,31.08278 77.46037,41.21109 77.46037,41.21109l-70.01749,-25.8614z"/>
 </g>
</svg>