<svg width="258.4289" height="452" xmlns="http://www.w3.org/2000/svg">
 <title>complete_task</title>

 <g>
  <title>background</title>
  <rect fill="none" id="canvas_background" height="454" width="260.4289" y="-1" x="-1"/>
 </g>
 <g>
  <title>Layer 1</title>
  <rect id="svg_59" fill="#3f3d56" height="110" width="15" y="139" x="108.2762"/>
  <path id="svg_83" fill="#2f2e41" d="m62.586447,83.318617a33.84039,33.84039 0 0 1 9.2634,-4.64548a236.20528,236.20528 0 0 1 65.26844,-14.20789c19.40737,-1.37621 40.44151,0.25837 55.59968,12.4555a19.11765,19.11765 0 0 1 5.63984,6.57067c1.907,4.11522 1.32909,8.89873 0.71173,13.39213a15.13268,15.13268 0 0 1 -1.29868,5.04158c-2.03978,3.88374 -7.06181,5.24426 -11.42383,4.77856s-8.45511,-2.31131 -12.75765,-3.167a57.0268,57.0268 0 0 0 -8.05768,-0.8206l-26.98461,-1.46088c-16.78,-0.90843 -33.78111,-1.80174 -50.24091,1.58481a50.04442,50.04442 0 0 0 -14.51562,5.002c-3.75947,2.11073 -6.291,5.13948 -9.77939,1.24086c-6.12853,-6.84929 -9.52082,-19.43789 -1.42472,-25.76426z"/>
  <path id="svg_84" fill="#f2f2f2" d="m104.401817,95.251657s36.29535,-16.27033 50.06255,2.50313s-7.50938,11.26408 -7.50938,11.26408l-23.77971,7.50938l-26.28283,-5.00626l7.50937,-16.27033z"/>
  <path id="svg_85" fill="#ffb9b9" d="m106.279167,83.361807s5.00625,23.77971 1.25156,30.03753s21.27659,15.01877 21.27659,15.01877l23.77971,-10.01252s-6.25782,-38.79847 0,-46.30786l-46.30786,11.26408z"/>
  <path id="svg_86" opacity="0.1" d="m106.279167,83.361807s5.00625,23.77971 1.25156,30.03753s21.27659,15.01877 21.27659,15.01877l23.77971,-10.01252s-6.25782,-38.79847 0,-46.30786l-46.30786,11.26408z"/>
  <path id="svg_87" fill="#575a89" d="m82.826957,369.296787c3.58075,6.86517 5.90169,14.30252 8.27061,21.67413a1.76326,1.76326 0 0 0 2.19056,1.45707l22.26192,-0.02477c2.74729,-0.00306 6.43329,-0.88568 6.40473,-3.63283c-0.02006,-1.93017 -1.99313,-3.13372 -3.46151,-4.38664c-4.07524,-3.47725 -5.13619,-9.21075 -6.824,-14.295a48.49736,48.49736 0 0 0 -18.04518,-24.23659a10.561,10.561 0 0 0 -3.85777,-1.90671a10.75565,10.75565 0 0 0 -4.22941,0.22948c-3.90786,0.78843 -18.50124,3.4861 -15.74445,9.1703c1.187,2.44746 5.586,4.99516 7.43034,7.28157a52.295,52.295 0 0 1 5.60416,8.66999z"/>
  <path id="svg_88" fill="#575a89" d="m160.240337,343.477177a50.58023,50.58023 0 0 1 -2.61718,4.81123c-3.22515,5.3192 -7.03114,10.28106 -10.03451,15.72857c-1.87336,3.39792 -3.4503,7.07052 -3.65734,10.94512s1.15762,7.99861 4.24858,10.34411c3.23168,2.45228 7.66234,2.56577 11.67869,1.99446s8.00942,-1.72247 12.05486,-1.41937c-1.3639,-7.71825 5.14536,-14.51112 6.77334,-22.178c0.45727,-2.15349 0.52522,-4.38624 1.13812,-6.50071a31.86192,31.86192 0 0 1 2.5196,-5.57151a72.03641,72.03641 0 0 0 6.79861,-20.05158c0.15329,-0.84662 -19.78885,-0.98545 -21.65951,-0.58089c-5.83769,1.26245 -4.98387,7.63784 -7.24326,12.47857z"/>
  <path id="svg_89" fill="#2f2e41" d="m6.535057,222.220847c-5.693,8.909 -4.38124,20.71541 -0.38282,30.50283s10.36228,18.43967 14.71789,28.07344c2.77679,6.14171 4.724,12.65384 7.85086,18.62493c3.872,7.39394 9.52528,13.91124 12.12351,21.84294c1.65625,5.05608 2.03622,10.59753 4.71916,15.192a46.55976,46.55976 0 0 0 5.52767,6.85776a63.37267,63.37267 0 0 1 12.74056,22.75738c2.452,-7.30468 9.79481,-12.09409 17.33638,-13.67384s15.35581,-0.50662 22.98531,0.5711c-4.256,-6.59313 -8.55317,-13.27 -11.09012,-20.69609c-2.45363,-7.18218 -3.17754,-14.82319 -4.83032,-22.23078c-3.38929,-15.19054 -10.62959,-29.2014 -17.79735,-43.01671l36.84192,-2.92225a143.634,143.634 0 0 1 18.10091,-0.67137c9.50936,0.44824 18.82532,2.77934 28.28408,3.85676s19.46489,0.79528 27.89428,-3.629a133.67272,133.67272 0 0 0 -23.9834,78.94293a30.56426,30.56426 0 0 1 46.26706,10.91875c14.43813,-19.73009 12.72169,-47.19734 24.1623,-68.804c2.3525,-4.44293 5.23562,-8.58129 7.77468,-12.92031c5.02179,-8.58179 8.66362,-17.88626 12.28434,-27.14671c3.20032,-8.18527 6.42409,-17.293 3.35466,-25.52822a26.654,26.654 0 0 0 -5.46933,-8.41068c-6.601,-7.27753 -15.78889,-12.661 -25.61163,-12.88516c-15.07892,-0.34418 -27.53544,10.833 -40.76278,18.0808c-15.58013,8.53692 -33.75635,11.93023 -51.47766,10.67546c-18.16917,-1.28648 -35.52166,-7.2339 -52.832,-12.47168a251.3697,251.3697 0 0 0 -26.36672,-6.80163c-7.42323,-1.39244 -14.493,0.15 -21.80834,2.04829c-7.96455,2.06675 -15.96925,5.68969 -20.5531,12.86306z"/>
  <path id="svg_90" fill="#ffb9b9" d="m163.851097,59.582087a37.5777,37.5777 0 0 1 -37.54691,37.5469a36.64244,36.64244 0 0 1 -6.67086,-0.60073a37.54538,37.54538 0 1 1 44.21777,-36.94619l0,0.00002z"/>
  <path id="svg_91" fill="#f2f2f2" d="m104.401817,95.251657s6.8836,3.12891 9.38673,5.632s10.01251,16.27033 22.52815,7.50938s13.7672,-13.7672 17.52189,-13.7672s8.76095,7.50938 8.76095,7.50938l34.418,103.254a144.14748,144.14748 0 0 1 -31.91488,26.90863c-20.025,12.51563 -43.80474,18.77345 -55.06881,13.7672s-32.54066,-8.761 -36.29535,-18.77346s-10.01252,-40.05 -10.01252,-40.05l17.5219,-76.3454l23.15394,-15.64453z"/>
  <path id="svg_92" fill="#2f2e41" d="m99.569447,199.679727c2.7286,-5.89382 3.12542,-12.56507 3.35623,-19.05576a115.5142,115.5142 0 0 0 -0.50938,-19.277c-1.10914,-8.37194 -3.83541,-16.4375 -5.55717,-24.70522a104.44318,104.44318 0 0 1 -2.18873,-22.049c0.02512,-3.3796 0.26978,-6.93742 2.11138,-9.7713c1.28477,-1.977 3.29437,-3.50817 4.09719,-5.72508c1.57416,-4.34683 -2.3153,-8.89829 -6.57778,-10.68831c-5.07079,-2.12947 -10.86647,-1.98651 -16.20147,-0.65036s-10.311,3.79412 -15.23974,6.23441c-3.56041,1.76282 -7.19641,3.57994 -9.95724,6.43683c-3.885,4.02021 -5.59333,9.61952 -6.97273,15.03734c-1.104,4.33628 -2.08523,8.858 -1.24524,13.25307c1.36407,7.13711 7.18227,12.505 10.28388,19.07605c3.60165,7.63046 3.35908,16.52257 1.92654,24.83783s-3.97562,16.44555 -4.7598,24.84679s0.41959,17.43205 5.68306,24.02686c2.1449,2.68744 7.96354,9.05652 11.89015,8.3359c3.08478,-0.56613 7.55707,-7.35677 10.04206,-9.5093c7.17873,-6.21841 15.6964,-11.74943 19.81879,-20.65375z"/>
  <path id="svg_93" fill="#2f2e41" d="m165.142267,91.170037c0.10958,6.98034 -2.96727,13.61537 -6.58588,19.58554s-7.8692,11.61657 -10.53578,18.06844a41.41269,41.41269 0 0 0 -1.93292,25.47742a82.19824,82.19824 0 0 0 2.76118,8.52516l6.8573,18.80947a32.64684,32.64684 0 0 0 3.97643,8.34863a26.9602,26.9602 0 0 0 5.40421,5.19875a50.43715,50.43715 0 0 0 17.63245,9.19868c6.4521,1.70509 13.5114,1.5981 19.607,-1.11854a283.7228,283.7228 0 0 1 12.17919,-75.19591c1.371,-4.50506 2.86935,-9.24789 1.81175,-13.83665c-1.18463,-5.1399 -5.31321,-8.99889 -9.23771,-12.52311c-12.00211,-10.77791 -25.20052,-22.09907 -41.266,-23.55205c-9.29815,-0.84088 -0.75046,7.96759 -0.67122,13.01417z"/>
  <path id="svg_94" fill="#ffb9b9" d="m83.008967,236.682417c0.95192,1.86329 1.54439,3.89265 2.4857,5.76133a32.1886,32.1886 0 0 0 5.10681,6.867c8.36825,9.279 18.59741,18.52266 31.08,19.08238a8.52255,8.52255 0 0 0 3.66329,-0.46109c2.1837,-0.90794 3.47374,-3.24754 3.89857,-5.574c0.88507,-4.84687 -1.25447,-9.68315 -3.39666,-14.1201c-4.64288,-9.61639 -9.867,-19.4767 -18.55991,-25.67874c-8.5691,-6.11372 -20.051,-7.59837 -30.04421,-4.52c-4.52814,1.3949 -12.03662,3.83071 -6.04143,7.962c4.54814,3.13409 9.17104,5.51992 11.80784,10.68122z"/>
  <path id="svg_95" fill="#ffb9b9" d="m136.968667,114.252657c-1.52893,-3.41495 -3.12752,-6.929 -5.87358,-9.47035a21.7906,21.7906 0 0 0 -8.97209,-4.54547a49.0651,49.0651 0 0 0 -13.16177,-1.88638c-5.3005,-0.033 -11.44644,1.38878 -13.69732,6.18773c-1.78741,3.81083 -0.40174,8.32344 1.39791,12.12851a11.89155,11.89155 0 0 0 3.71037,5.0122c2.28579,1.54439 5.242,1.49546 7.95172,2.01274c4.24844,0.81105 8.05109,3.08823 11.75257,5.32564l9.28379,5.61169l15.94624,9.6389c-0.4202,-0.254 -0.27082,-11.18929 -0.76059,-12.98146c-1.57772,-5.77325 -5.12947,-11.56659 -7.57725,-17.03375z"/>
  <path id="svg_96" fill="#2f2e41" d="m90.517577,388.137177c-3.73128,5.07055 -2.98316,12.31868 -6.28836,17.67672c-2.865,4.64442 -8.26439,7.07963 -11.84794,11.19509a30.00981,30.00981 0 0 0 -3.0461,4.38179c-3.32426,5.56824 -6.02627,12.70465 -2.75231,18.30262c2.63369,4.50324 8.16962,6.26326 13.24668,7.46281c6.41711,1.51617 13.08453,2.7296 19.57572,1.571s12.83514,-5.13334 15.14958,-11.30759a43.67948,43.67948 0 0 1 1.61986,-4.57108c3.51829,-6.92638 14.55387,-7.00125 18.15458,-13.88514c2.51985,-4.81749 0.20348,-10.64068 -2.11191,-15.5597l-7.07174,-15.02381c-2.3468,-4.98574 -11.86036,-2.1185 -16.82,-3.31325c-6.46841,-1.5582 -13.15471,-3.27494 -17.80806,3.07054z"/>
  <path id="svg_97" fill="#2f2e41" d="m145.215687,375.230707c-3.001,2.10319 -4.941,5.40322 -6.39838,8.76553c-3.49982,8.07435 -4.70181,16.926 -5.86882,25.64852c-0.46753,3.4944 -0.93262,7.07082 -0.20241,10.51991c1.50815,7.1235 7.96321,12.36912 14.91121,14.54718s14.40007,1.84273 21.67272,1.486c2.33583,-0.11459 4.76454,-0.25444 6.81258,-1.38351c3.65508,-2.015 5.083,-6.753 4.4562,-10.87934s-2.88106,-7.7979 -5.08771,-11.34059s-4.46306,-7.21227 -5.09505,-11.33787c-1.0631,-6.93981 1.93687,-17.12677 -2.32662,-23.40529c-4.27273,-6.29217 -17.17144,-6.61694 -22.87372,-2.62054z"/>
  <path id="svg_98" fill="#2f2e41" d="m162.906617,40.014637a9.53037,9.53037 0 0 0 -4.1335,-5.39538a21.87249,21.87249 0 0 0 -0.87275,-7.12025c-2.27381,-6.72219 -7.66041,-6.33689 -12.74282,-9.30889c-2.20506,-1.28946 -2.06886,-2.42911 -3.21676,-4.547a16.87581,16.87581 0 0 0 -6.50265,-6.63465c-3.26068,-2.07749 -6.70263,-4.217 -10.56,-4.47994c-8.10629,-0.55252 -14.32148,7.07206 -22.06935,9.51912c-3.41507,1.07854 -7.08466,1.123 -10.51775,2.14264s-6.85824,3.45433 -7.3699,6.99888c-0.2362,1.63641 0.18051,3.31514 -0.059,4.9511c-0.47629,3.25151 -3.329,5.52876 -5.23863,8.20315c-4.223,5.91407 -3.74,14.269 -0.36285,20.70374a29.10147,29.10147 0 0 0 2.43514,3.81069a23.441,23.441 0 0 0 2.57111,8.70495c3.3771,6.43474 9.18827,11.24314 15.25879,15.238a36.0164,36.0164 0 0 1 -0.90041,-6.49783a4.4825,4.4825 0 0 1 0.2763,-2.153c0.67605,-1.4132 2.46242,-1.789 3.82444,-2.563c2.82106,-1.60311 3.92733,-5.15086 4.00891,-8.39458s-0.60584,-6.49279 -0.266,-9.71963a5.31085,5.31085 0 0 1 1.81806,-3.90671a6.27973,6.27973 0 0 1 3.42767,-0.81721c5.78008,-0.23582 11.81935,-0.342 16.91773,-3.07537c1.73924,-0.93248 3.35617,-2.16571 5.26568,-2.66369c4.3328,-1.12988 8.76117,1.907 11.25827,5.62378s3.74208,8.13983 6.046,11.97939s6.28409,7.26356 10.73859,6.80866a1.78255,1.78255 0 0 0 1.33032,-0.59156a1.99416,1.99416 0 0 0 0.24506,-1.13339l0.24887,-17.0275a25.73666,25.73666 0 0 0 -0.85857,-8.65452z"/>
  <path id="svg_99" fill="#2f2e41" d="m44.082077,129.082617c-3.5824,5.28506 -7.713,10.36666 -9.68211,16.44021c-1.15738,3.56982 -1.51681,7.34356 -2.35473,11.00157c-2.79095,12.18406 -10.854,23.00592 -11.66444,35.47925a16.86858,16.86858 0 0 0 1.18465,8.14634c2.313,5.03124 7.84851,7.68282 13.12879,9.3507s10.95082,2.86958 15.16546,6.46122a46.474,46.474 0 0 1 5.74667,6.66208a55.66548,55.66548 0 0 0 26.58928,18.19242c-0.82649,-5.69488 -1.21434,-12.55909 3.338,-16.07918c2.46424,-1.90548 5.757,-2.24462 8.86043,-2.51282l14.66444,-1.26732a188.44105,188.44105 0 0 0 -32.14612,-25.0422c-4.05492,-2.505 -8.46834,-5.14724 -10.31986,-9.53916c-1.15748,-2.74563 -1.14165,-5.82105 -1.16909,-8.80056a216.86482,216.86482 0 0 0 -2.76252,-32.55644c-1.2072,-7.47624 -2.80573,-14.88573 -4.63393,-22.23483c-0.51324,-2.06315 -3.5467,-11.3174 -7.28054,-9.152c-0.87948,0.51005 -1.70237,6.3805 -2.21589,7.59859a46.086,46.086 0 0 1 -4.44849,7.85213z"/>
  <path id="svg_100" fill="#2f2e41" d="m212.981157,109.110407l5.98854,12.45451a29.92583,29.92583 0 0 1 3.7756,16.841l0.35548,37.35964c0.0475,4.99241 0.08578,10.06011 -1.22852,14.87665a11.91338,11.91338 0 0 1 -2.06531,4.44215a13.8846,13.8846 0 0 1 -3.54186,2.85312c-11.33379,7.08154 -26.03039,11.10646 -38.00488,5.17228a52.5939,52.5939 0 0 1 -7.79175,-5.08635c-4.77238,-3.53418 -9.6152,-7.13732 -13.18542,-11.88281c-3.73661,-4.96664 -5.878,-10.91288 -8.39181,-16.59711a127.54587,127.54587 0 0 0 -17.33866,-28.4384c-1.01694,-1.26105 -2.11029,-2.63655 -2.147,-4.25614c-0.07429,-3.27465 3.811,-4.88673 6.84034,-6.13261c5.17533,-2.12848 10.05559,-6.23571 10.92192,-11.76418c11.00529,14.432 23.14967,29.68062 40.516,34.95427a1.79191,1.79191 0 0 0 2.75627,-1.53162c0.98552,-4.12464 1.33418,-8.37187 2.05533,-12.55085a71.48938,71.48938 0 0 1 7.54185,-21.74986c2.05648,-3.80985 8.71678,-17.75491 12.94388,-8.96369z"/>
  <path id="svg_101" opacity="0.1" d="m64.375377,145.126547a57.44137,57.44137 0 0 1 -5.488,25.59709a21.15187,21.15187 0 0 0 -2.149,5.63878c-0.65691,4.20771 1.73771,8.28126 4.47459,11.54406a47.46886,47.46886 0 0 0 20.29576,14.11971"/>
  <path id="svg_102" opacity="0.1" d="m194.415177,137.675117c-0.88234,2.3728 -0.081,4.99693 0.599,7.43543a74.91745,74.91745 0 0 1 2.73038,21.73834a0.79121,0.79121 0 0 1 -0.92533,0.94835c-2.88883,0.177 -6.19612,0.19568 -8.15607,-1.93394"/>
 </g>
</svg>