<svg width="328" height="270.72337" xmlns="http://www.w3.org/2000/svg">
 <title>mobile_development</title>

 <g>
  <title>background</title>
  <rect fill="none" id="canvas_background" height="272.72337" width="330" y="-1" x="-1"/>
 </g>
 <g>
  <title>Layer 1</title>
  <path id="svg_1" fill="#ffb8b8" d="m44.55839,72.084859s10.80448,17.13628 6.94581,21.776s28.94959,4.75576 28.94959,4.75576s-4.92815,-24.9281 -3.4777,-30.665l-32.4177,4.13324z"/>
  <circle id="svg_2" fill="#2f2e41" r="33.879528" cy="44.4157" cx="61.82548"/>
  <polygon id="svg_3" fill="#ffb8b8" points="141.50999450683594,228.052001953125 141.50999450683594,248.13702392578125 161.593994140625,243.9520263671875 159.92098999023438,229.72601318359375 141.50999450683594,228.052001953125 "/>
  <path id="svg_4" fill="#ffb8b8" d="m212.64248,231.399509l56.06912,9.20538l-14.2265,20.92131s-39.33207,-13.38964 -49.3743,-13.38964s7.53168,-16.73705 7.53168,-16.73705z"/>
  <path id="svg_5" fill="#d0cde1" d="m85.44089,191.230589s41.84263,-48.53745 55.23227,-46.02689s19.24761,17.5739 19.24761,17.5739l7.53167,74.47988s-26.77928,2.51055 -26.77928,0s-5.02112,-56.06912 -5.02112,-56.06912s-39.33204,87.03266 -60.25338,29.28984l10.04223,-19.24761z"/>
  <path id="svg_6" fill="#d0cde1" d="m17.65584,223.867839s0.83685,43.84262 25.94243,46.35318s52.7217,-18.737 52.7217,-18.737l45.19,-21.64944s53.55856,28.34426 69.45876,20.81259c0,0 16.73705,-17.57391 5.858,-22.595s-0.83685,0 -0.83685,0l-64.43765,-33.4741s-12.55279,-3.34741 -34.31095,5.858s-51.048,13.38964 -51.048,13.38964l-48.53744,10.04213z"/>
  <circle id="svg_7" fill="#ffb8b8" r="25.105581" cy="55.66048" cx="59.49846"/>
  <path id="svg_8" fill="#0e7dff" d="m95.48312,125.956089l-1.6737,35.14781s0.83685,46.02689 -6.69482,49.3743c-3.80767,1.6904 -11.45652,5.088 -18.52793,8.80365c-5.30562,2.77836 -10.2849,5.72409 -13.06326,8.25978a9.36818,9.36818 0 0 0 -1.88291,2.18417c-3.34741,5.858 -25.10558,5.02112 -30.1267,0.83686s-1.6737,5.02111 -5.858,6.69482c-4.05039,1.62349 -9.66564,-11.649 -6.22619,-31.46569c0.1088,-0.66109 0.23435,-1.33057 0.36822,-2.00841c3.84117,-19.20578 -2.19255,-65.20759 -1.26366,-82.98233a31.2726,31.2726 0 0 1 0.42681,-4.05034c2.51055,-13.38964 34.54529,-40.63755 40.53714,-29.03041c7.381,14.32691 24.33568,1.23852 27.24791,-5.28054c16.73705,-0.83685 22.595,19.24761 22.595,19.24761l-5.85791,24.26872z"/>
  <path id="svg_9" fill="#2f2e41" d="m163.26818,240.604889s-13.38964,5.02111 -17.57391,4.18426s-8.36852,2.51056 -8.36852,7.53167s-5.02112,16.737 2.51056,17.57391s38.49521,-0.83686 45.19,1.6737c0,0 30.12669,0.83685 27.61614,-11.71593s-15.06335,-11.71594 -15.06335,-11.71594s-34.31092,-1.67371 -34.31092,-7.53167z"/>
  <path id="svg_10" fill="#2f2e41" d="m261.17992,243.115439s1.67371,-5.02111 4.18427,-5.02111s22.595,3.34741 25.10557,2.51056s31.8004,-2.51056 26.77928,11.71593s-21.75816,15.9002 -21.75816,15.9002s-30.12669,-3.34741 -34.311,-2.51056s-19.24761,0 -16.73705,-4.18426s18.4108,-11.71594 16.73709,-18.41076z"/>
  <path id="svg_11" fill="#3f3d56" d="m185.00463,122.912839l4.59111,18.93835a1.18275,1.18275 0 0 1 -0.023,0.6392l-20.82624,65.08207a1.18288,1.18288 0 0 1 -2.30193,-0.22695l-2.88107,-25.35342a1.18282,1.18282 0 0 1 0.05063,-0.5l19.11622,-58.667a1.18289,1.18289 0 0 1 2.27428,0.08775z"/>
  <polygon id="svg_12" fill="#fff" points="183.31600952148438,124.51199340820312 187.55499267578125,140.760986328125 169.18600463867188,200.10501098632812 164.94699096679688,181.73699951171875 183.31600952148438,124.51199340820312 "/>
  <path id="svg_13" fill="#3f3d56" d="m90.76762,212.821429c0.70648,2.11943 73.47331,-0.70647 74.17979,-1.41294a15.33535,15.33535 0 0 0 1.55421,-2.8259c0.66413,-1.413 1.27169,-2.8259 1.27169,-2.8259l-2.8259,-22.87563l-72.06041,-2.55744s-1.80154,19.38566 -2.16892,28.259a21.19873,21.19873 0 0 0 0.04954,4.23881z"/>
  <polygon id="svg_14" opacity="0.1" points="155.76300048828125,185.97500610351562 157.17599487304688,205.75701904296875 125.38499450683594,205.75701904296875 125.38499450683594,185.97500610351562 155.76300048828125,185.97500610351562 "/>
  <polygon id="svg_15" opacity="0.1" points="114.78799438476562,192.33401489257812 114.97799682617188,192.29598999023438 114.08099365234375,200.81100463867188 96.41900634765625,200.81100463867188 96.41900634765625,192.33401489257812 114.78799438476562,192.33401489257812 "/>
  <path id="svg_16" opacity="0.1" d="m90.76762,212.821429c0.70648,2.11943 73.47331,-0.70647 74.17979,-1.41294a15.33535,15.33535 0 0 0 1.55421,-2.8259l-75.7835,0a21.19873,21.19873 0 0 0 0.0495,4.23884z"/>
  <circle id="svg_17" fill="#2f2e41" r="9.44184" cy="7.37883" cx="67.43866"/>
  <path id="svg_18" fill="#2f2e41" d="m64.59935,17.656239s-9.64664,16.04562 -32.07831,22.0523s-0.18324,39.71527 -0.18324,39.71527s-8.09034,-12.25767 3.57888,-25.23887s30.44802,-21.85614 28.68267,-36.5287z"/>
  <path id="svg_19" opacity="0.1" d="m68.58667,219.281849c-2.067,3.90814 -4.49389,7.96685 -4.90394,9.6071c-0.27618,1.113 -3.339,0.46864 -8.15932,-1.34732c-9.66563,-3.65709 -26.41944,-12.03394 -42.05184,-20.41084a13.20191,13.20191 0 0 1 -2.04192,-1.339c0.1088,-0.66109 0.23435,-1.33057 0.36822,-2.00841c3.84117,-19.20578 -2.19255,-65.20759 -1.26366,-82.98233l7.12163,-2.37663l14.22649,13.38964l0,56.906s36.82151,20.08446 39.33207,21.75817c1.28041,0.85352 -0.4854,4.74491 -2.62773,8.80362z"/>
  <path id="svg_20" fill="#ffb8b8" d="m99.66738,173.656679l22.595,11.71594s13.38964,-14.22649 21.75817,-3.34741s-24.2687,14.22647 -24.2687,14.22647s-28.453,-6.69482 -29.28984,-15.9002s9.20537,-6.6948 9.20537,-6.6948z"/>
  <path id="svg_21" fill="#ffb8b8" d="m62.009,204.620229l13.38964,3.34741s15.06336,-18.41076 30.96357,-11.71596s-20.08447,20.08446 -20.08447,20.08446s-19.2476,10.04223 -26.77928,1.67371s2.51054,-13.38962 2.51054,-13.38962z"/>
  <path id="svg_22" fill="#0e7dff" d="m91.29886,94.155679c0.83685,0.83686 10.04223,7.53168 10.04223,7.53168s2.51056,31.80039 -0.83685,38.49521s-5.858,6.69482 -3.34741,10.04223s5.858,0.83686 2.51055,6.69482s-6.69482,5.02112 -4.18426,7.53168s1.67371,3.34741 1.67371,3.34741l10.04223,8.36852s-6.16116,9.81321 -13.95966,9.09087s-14.49333,-38.38071 -14.49333,-38.38071l12.55279,-52.72171z"/>
  <path id="svg_23" fill="#0e7dff" d="m17.65584,114.240149l-7.53168,2.51056s-20.08446,73.643 3.34741,86.19581s49.3743,25.10558 50.21116,21.75817s10.04227,-16.73701 7.53167,-18.41076s-39.33207,-21.75816 -39.33207,-21.75816l0,-56.906l-14.22649,-13.38962z"/>
  <polygon id="svg_24" opacity="0.1" points="28.9530029296875,144.78500366210938 27.279998779296875,184.95401000976562 71.63299560546875,205.8759765625 30.626998901367188,184.95401000976562 28.9530029296875,144.78500366210938 "/>
 </g>
</svg>